<?xml version="1.0" encoding="UTF-8" standalone="no"?>
<!DOCTYPE svg PUBLIC "-//W3C//DTD SVG 1.1//EN" "http://www.w3.org/Graphics/SVG/1.1/DTD/svg11.dtd">
<svg version="1.1" xmlns="http://www.w3.org/2000/svg" xmlns:xlink="http://www.w3.org/1999/xlink" preserveAspectRatio="xMidYMid meet" viewBox="0 0 640 640" width="40" height="40"><defs><path d="M278.62 113.49C267.62 113.49 258.71 104.67 258.71 93.78C258.71 89.84 258.71 70.13 258.71 34.65C151.18 34.65 91.45 34.65 79.5 34.65C57.51 34.65 39.68 52.29 39.68 74.07C39.68 105.61 39.68 357.91 39.68 389.45C39.68 411.22 57.51 428.87 79.5 428.87C101.41 428.87 276.63 428.87 298.53 428.87C320.52 428.87 338.35 411.22 338.35 389.45C338.35 371.05 338.35 279.06 338.35 113.49C306.5 113.49 286.58 113.49 278.62 113.49Z" id="eKADvx7xk"></path><path d="M338.35 113.49L258.71 34.65C258.71 70.13 258.71 89.84 258.71 93.78C258.71 104.67 267.62 113.49 278.62 113.49C286.58 113.49 306.5 113.49 338.35 113.49Z" id="b5WfMzZe9"></path><path d="M539.29 276.26C528.08 276.26 518.99 267.1 518.99 255.81C518.99 251.72 518.99 231.28 518.99 194.48C409.39 194.48 348.51 194.48 336.33 194.48C313.91 194.48 295.74 212.78 295.74 235.37C295.74 268.08 295.74 529.76 295.74 562.47C295.74 585.05 313.91 603.36 336.33 603.36C358.66 603.36 537.26 603.36 559.58 603.36C582 603.36 600.17 585.05 600.17 562.47C600.17 543.39 600.17 447.99 600.17 276.26C567.7 276.26 547.4 276.26 539.29 276.26Z" id="aevryNhr8"></path><path d="M600.17 276.26L518.99 194.48C518.99 231.28 518.99 251.72 518.99 255.81C518.99 267.1 528.08 276.26 539.29 276.26C547.4 276.26 567.7 276.26 600.17 276.26Z" id="m2dqcVjNmh"></path><path d="M82.66 98.6C76.78 98.6 72.01 93.83 72.01 87.94C72.01 82.06 76.78 77.29 82.66 77.29C93.31 77.29 178.55 77.29 189.2 77.29C195.08 77.29 199.85 82.06 199.85 87.94C199.85 93.83 195.08 98.6 189.2 98.6C167.89 98.6 93.31 98.6 82.66 98.6Z" id="d1bupegdz"></path><path d="M82.66 162.52C76.78 162.52 72.01 157.75 72.01 151.87C72.01 145.98 76.78 141.21 82.66 141.21C101.84 141.21 255.25 141.21 274.43 141.21C280.31 141.21 285.09 145.98 285.09 151.87C285.09 157.75 280.31 162.52 274.43 162.52C236.08 162.52 101.84 162.52 82.66 162.52Z" id="bjhqUXAKA"></path><path d="M82.66 226.44C76.78 226.44 72.01 221.67 72.01 215.79C72.01 209.91 76.78 205.13 82.66 205.13C99.71 205.13 236.08 205.13 253.12 205.13C259.01 205.13 263.78 209.91 263.78 215.79C263.78 221.67 259.01 226.44 253.12 226.44C219.03 226.44 99.71 226.44 82.66 226.44Z" id="l7gRL9alY8"></path><path d="M82.66 290.37C76.78 290.37 72.01 285.6 72.01 279.71C72.01 273.83 76.78 269.06 82.66 269.06C99.71 269.06 236.08 269.06 253.12 269.06C259.01 269.06 263.78 273.83 263.78 279.71C263.78 285.6 259.01 290.37 253.12 290.37C219.03 290.37 99.71 290.37 82.66 290.37Z" id="aznHRKqO8"></path><path d="M105.9 360.05C100.77 360.05 96.62 355.28 96.62 349.4C96.62 343.51 100.77 338.74 105.9 338.74C120.76 338.74 239.63 338.74 254.49 338.74C259.62 338.74 263.78 343.51 263.78 349.4C263.78 355.28 259.62 360.05 254.49 360.05C224.77 360.05 120.76 360.05 105.9 360.05Z" id="d1cVtcHb4p"></path><path d="M359.66 290.37C353.78 290.37 349.01 285.6 349.01 279.71C349.01 273.83 353.78 269.06 359.66 269.06C370.32 269.06 455.55 269.06 466.2 269.06C472.09 269.06 476.86 273.83 476.86 279.71C476.86 285.6 472.09 290.37 466.2 290.37C444.89 290.37 370.32 290.37 359.66 290.37Z" id="g8ywEMZi"></path><path d="M359.66 354.29C353.78 354.29 349.01 349.52 349.01 343.64C349.01 337.75 353.78 332.98 359.66 332.98C378.84 332.98 532.26 332.98 551.43 332.98C557.32 332.98 562.09 337.75 562.09 343.64C562.09 349.52 557.32 354.29 551.43 354.29C513.08 354.29 378.84 354.29 359.66 354.29Z" id="brAjzI1fj"></path><path d="M359.66 418.21C353.78 418.21 349.01 413.44 349.01 407.56C349.01 401.68 353.78 396.91 359.66 396.91C378.84 396.91 532.26 396.91 551.43 396.91C557.32 396.91 562.09 401.68 562.09 407.56C562.09 413.44 557.32 418.21 551.43 418.21C513.08 418.21 378.84 418.21 359.66 418.21Z" id="o3eBVeELUr"></path><path d="M359.66 482.14C353.78 482.14 349.01 477.37 349.01 471.48C349.01 465.6 353.78 460.83 359.66 460.83C378.84 460.83 532.26 460.83 551.43 460.83C557.32 460.83 562.09 465.6 562.09 471.48C562.09 477.37 557.32 482.14 551.43 482.14C513.08 482.14 378.84 482.14 359.66 482.14Z" id="a49dQsFBM2"></path><path d="M359.66 546.06C353.78 546.06 349.01 541.29 349.01 535.41C349.01 529.52 353.78 524.75 359.66 524.75C376.71 524.75 513.08 524.75 530.13 524.75C536.01 524.75 540.78 529.52 540.78 535.41C540.78 541.29 536.01 546.06 530.13 546.06C496.03 546.06 376.71 546.06 359.66 546.06Z" id="d1POYgRLe"></path><path d="M423.73 71.89C438.03 58.8 445.98 51.52 447.57 50.07C450.02 47.91 451 44.7 450.14 41.69C449.27 38.68 446.71 36.33 443.42 35.55C440.13 34.76 436.64 35.65 434.28 37.89C430.29 41.54 398.38 70.76 394.39 74.41C393.52 75.2 392.83 76.15 392.36 77.19C391.38 79.31 391.38 81.7 392.36 83.82C392.83 84.86 393.52 85.8 394.39 86.6C398.38 90.25 430.29 119.46 434.28 123.11C436.64 125.36 440.13 126.25 443.42 125.46C446.71 124.67 449.27 122.32 450.14 119.31C451 116.3 450.02 113.1 447.57 110.94C445.98 109.48 438.03 102.21 423.73 89.12C477.81 89.12 507.86 89.12 513.87 89.12C529.44 89.12 542.08 100.68 542.08 114.95C542.08 120.97 542.08 169.19 542.08 175.22C542.08 179.97 546.29 183.83 551.48 183.83C556.67 183.83 560.88 179.97 560.88 175.22C560.88 169.19 560.88 120.97 560.88 114.95C560.85 91.18 539.82 71.92 513.87 71.89C501.85 71.89 471.8 71.89 423.73 71.89Z" id="e3yDpBzS4x"></path><path d="M241.74 555.8C241.28 554.72 240.6 553.73 239.74 552.91C235.8 549.11 204.28 518.76 200.34 514.96C198.01 512.64 194.56 511.71 191.31 512.53C188.06 513.34 185.53 515.79 184.68 518.91C183.83 522.04 184.8 525.37 187.21 527.62C188.78 529.13 196.63 536.69 210.76 550.3C157.35 550.3 127.68 550.3 121.74 550.3C106.35 550.3 93.88 538.28 93.88 523.46C93.88 518.09 93.88 475.14 93.88 469.78C93.88 464.84 89.72 460.83 84.59 460.83C79.46 460.83 75.31 464.84 75.31 469.78C75.31 475.14 75.31 518.09 75.31 523.46C75.34 548.15 96.11 568.16 121.74 568.19C127.68 568.19 157.35 568.19 210.76 568.19C196.63 581.8 188.78 589.36 187.21 590.87C184.8 593.12 183.83 596.44 184.68 599.57C185.53 602.7 188.06 605.14 191.31 605.96C194.56 606.78 198.01 605.85 200.34 603.52C204.28 599.72 235.8 569.37 239.74 565.58C240.6 564.75 241.28 563.77 241.74 562.69C242.71 560.48 242.71 558 241.74 555.8Z" id="byo6IoS1z"></path><path d="M58.03 358.72C57.98 352.84 62.71 348.02 68.59 347.97C74.48 347.92 79.29 352.65 79.34 358.54C79.36 360.67 79.5 377.71 79.52 379.84C79.57 385.73 84.39 390.46 90.27 390.4C92.4 390.39 109.44 390.24 111.58 390.22C117.46 390.17 122.27 394.9 122.32 400.78C122.37 406.67 117.64 411.48 111.76 411.53C109.63 411.55 92.58 411.69 90.45 411.71C72.8 411.86 58.37 397.68 58.22 380.03C58.18 375.77 58.05 360.85 58.03 358.72Z" id="b1SQrwZYn"></path><path d="M535.13 593.68C529.24 593.68 524.47 588.91 524.47 583.02C524.47 577.14 529.24 572.37 535.13 572.37C537.26 572.37 554.3 572.37 556.43 572.37C562.32 572.37 567.09 567.6 567.09 561.71C567.09 559.58 567.09 542.54 567.09 540.41C567.09 534.52 571.86 529.75 577.74 529.75C583.62 529.75 588.39 534.52 588.39 540.41C588.39 542.54 588.39 559.58 588.39 561.71C588.39 579.37 574.08 593.68 556.43 593.68C552.17 593.68 537.26 593.68 535.13 593.68Z" id="b33tInZUoc"></path></defs><g><g><g><use xlink:href="#eKADvx7xk" opacity="1" fill="#d7d7d7" fill-opacity="1"></use><g><use xlink:href="#eKADvx7xk" opacity="1" fill-opacity="0" stroke="#000000" stroke-width="1" stroke-opacity="0"></use></g></g><g><use xlink:href="#b5WfMzZe9" opacity="1" fill="#5eafcd" fill-opacity="1"></use><g><use xlink:href="#b5WfMzZe9" opacity="1" fill-opacity="0" stroke="#000000" stroke-width="1" stroke-opacity="0"></use></g></g><g><use xlink:href="#aevryNhr8" opacity="1" fill="#82cedd" fill-opacity="1"></use><g><use xlink:href="#aevryNhr8" opacity="1" fill-opacity="0" stroke="#000000" stroke-width="1" stroke-opacity="0"></use></g></g><g><use xlink:href="#m2dqcVjNmh" opacity="1" fill="#ffa84a" fill-opacity="1"></use><g><use xlink:href="#m2dqcVjNmh" opacity="1" fill-opacity="0" stroke="#000000" stroke-width="1" stroke-opacity="0"></use></g></g><g><use xlink:href="#d1bupegdz" opacity="1" fill="#989898" fill-opacity="1"></use><g><use xlink:href="#d1bupegdz" opacity="1" fill-opacity="0" stroke="#000000" stroke-width="1" stroke-opacity="0"></use></g></g><g><use xlink:href="#bjhqUXAKA" opacity="1" fill="#989898" fill-opacity="1"></use><g><use xlink:href="#bjhqUXAKA" opacity="1" fill-opacity="0" stroke="#000000" stroke-width="1" stroke-opacity="0"></use></g></g><g><use xlink:href="#l7gRL9alY8" opacity="1" fill="#989898" fill-opacity="1"></use><g><use xlink:href="#l7gRL9alY8" opacity="1" fill-opacity="0" stroke="#000000" stroke-width="1" stroke-opacity="0"></use></g></g><g><use xlink:href="#aznHRKqO8" opacity="1" fill="#989898" fill-opacity="1"></use><g><use xlink:href="#aznHRKqO8" opacity="1" fill-opacity="0" stroke="#000000" stroke-width="1" stroke-opacity="0"></use></g></g><g><use xlink:href="#d1cVtcHb4p" opacity="1" fill="#989898" fill-opacity="1"></use><g><use xlink:href="#d1cVtcHb4p" opacity="1" fill-opacity="0" stroke="#000000" stroke-width="1" stroke-opacity="0"></use></g></g><g><use xlink:href="#g8ywEMZi" opacity="1" fill="#eeecf5" fill-opacity="1"></use><g><use xlink:href="#g8ywEMZi" opacity="1" fill-opacity="0" stroke="#000000" stroke-width="1" stroke-opacity="0"></use></g></g><g><use xlink:href="#brAjzI1fj" opacity="1" fill="#eeecf5" fill-opacity="1"></use><g><use xlink:href="#brAjzI1fj" opacity="1" fill-opacity="0" stroke="#000000" stroke-width="1" stroke-opacity="0"></use></g></g><g><use xlink:href="#o3eBVeELUr" opacity="1" fill="#eeecf5" fill-opacity="1"></use><g><use xlink:href="#o3eBVeELUr" opacity="1" fill-opacity="0" stroke="#000000" stroke-width="1" stroke-opacity="0"></use></g></g><g><use xlink:href="#a49dQsFBM2" opacity="1" fill="#eeecf5" fill-opacity="1"></use><g><use xlink:href="#a49dQsFBM2" opacity="1" fill-opacity="0" stroke="#000000" stroke-width="1" stroke-opacity="0"></use></g></g><g><use xlink:href="#d1POYgRLe" opacity="1" fill="#eeecf5" fill-opacity="1"></use><g><use xlink:href="#d1POYgRLe" opacity="1" fill-opacity="0" stroke="#000000" stroke-width="1" stroke-opacity="0"></use></g></g><g><use xlink:href="#e3yDpBzS4x" opacity="1" fill="#b3b3b3" fill-opacity="1"></use><g><use xlink:href="#e3yDpBzS4x" opacity="1" fill-opacity="0" stroke="#000000" stroke-width="1" stroke-opacity="0"></use></g></g><g><use xlink:href="#byo6IoS1z" opacity="1" fill="#b3b3b3" fill-opacity="1"></use><g><use xlink:href="#byo6IoS1z" opacity="1" fill-opacity="0" stroke="#000000" stroke-width="1" stroke-opacity="0"></use></g></g><g><use xlink:href="#b1SQrwZYn" opacity="1" fill="#bfbfbf" fill-opacity="1"></use><g><use xlink:href="#b1SQrwZYn" opacity="1" fill-opacity="0" stroke="#000000" stroke-width="1" stroke-opacity="0"></use></g></g><g><use xlink:href="#b33tInZUoc" opacity="1" fill="#f1f2f2" fill-opacity="1"></use><g><use xlink:href="#b33tInZUoc" opacity="1" fill-opacity="0" stroke="#000000" stroke-width="1" stroke-opacity="0"></use></g></g></g></g></svg>