<svg xmlns="http://www.w3.org/2000/svg" viewBox="0 0 48 48"><path fill="#ff9cbe" d="M39 28H9v13a2 2 0 002 2h26a2 2 0 002-2V28z"/><path fill="#50e6ff" d="M39 16v12H9V7a2 2 0 012-2h17l11 11z"/><linearGradient id="a" x1="28.529" x2="33.6" y1="15.472" y2="10.4" gradientUnits="userSpaceOnUse"><stop offset="0" stop-color="#3079d6"/><stop offset="1" stop-color="#297cd2"/></linearGradient><path fill="url(#a)" d="M28 5v9a2 2 0 002 2h9L28 5z"/><path fill="#057093" d="M33.5 21h-19a.5.5 0 01-.5-.5v-1a.5.5 0 01.5-.5h19a.5.5 0 01.5.5v1a.5.5 0 01-.5.5zM33.5 25h-19a.5.5 0 01-.5-.5v-1a.5.5 0 01.5-.5h19a.5.5 0 01.5.5v1a.5.5 0 01-.5.5z"/><path fill="#ad1f4e" d="M33.5 33h-19a.5.5 0 01-.5-.5v-1a.5.5 0 01.5-.5h19a.5.5 0 01.5.5v1a.5.5 0 01-.5.5z"/><path fill="#cf1928" d="M44 29H4a1 1 0 110-2h40a1 1 0 110 2z"/></svg>